<svg xmlns="http://www.w3.org/2000/svg" viewBox="0 0 40 16" aria-hidden="true" focusable="false" width="40" height="16">
  <path fill="#FFFFFF" d="M0,0v16h40V0H0z M3.9,12.6H1.5L3.8,1.5h3.8l2.3,7.8h0l1.5-7.8h2.8L10.8,12.6H7.1L4.6,4.6h0 L3.9,12.6z"/>
  <path fill="#005EB8" d="M0,0v16h40V0H0z"/>
  <path fill="#FFFFFF" d="M3.8,1.5l-2.3,11.1h2.4l0.7-8h0l2.5,8h3.7l3.4-11.1h-2.8l-1.5,7.8h0l-2.3-7.8H3.8z"/>
  <path fill="#FFFFFF" d="M15.2,1.5l-2.3,11.1h2.9l0.9-4.2h3.4l-0.9,4.2h2.9l2.3-11.1h-2.9l-0.9,4.1h-3.4l0.9-4.1H15.2z"/>
  <path fill="#FFFFFF" d="M30.9,4.2c-0.6-0.3-1.4-0.5-2.5-0.5c-1.2,0-2.1,0.2-2.1,1.1c0,1.6,4.3,1,4.3,4.4 c0,3.1-2.9,3.9-5.5,3.9c-1.2,0-2.5-0.3-3.5-0.6l0.7-2.3c0.6,0.4,1.8,0.7,2.8,0.7c0.9,0,2.4-0.2,2.4-1.3 c0-1.8-4.3-1.1-4.3-4.3c0-2.9,2.5-3.8,5-3.8c1.4,0,2.7,0.2,3.4,0.5L30.9,4.2z"/>
</svg>
